<?xml version="1.0" encoding="UTF-8" standalone="no"?>
<!-- Created with Inkscape (http://www.inkscape.org/) -->
<svg xmlns:svg="http://www.w3.org/2000/svg" xmlns="http://www.w3.org/2000/svg" xmlns:inkscape="http://www.inkscape.org/namespaces/inkscape" version="1.0" width="73" height="28" id="svg4625">
  <defs id="defs4627">
    <filter id="filter4716">
      <feGaussianBlur id="feGaussianBlur4718" stdDeviation="0.59062736" inkscape:collect="always"/>
    </filter>
  </defs>
  <g transform="translate(-341.143, -816.005)" id="layer1">
    <g transform="translate(0.999752, 0.999809)" id="g4728">
      <rect width="69.835739" height="24.664639" ry="1.7784951" x="341.99738" y="816.92761" transform="matrix(0.993721, 0, 0, 0.984303, 2.0699, 13.2105)" style="opacity: 1; fill: rgb(0, 0, 0); fill-opacity: 0.752941; stroke: none; stroke-width: 16; stroke-linecap: round; stroke-linejoin: round; stroke-miterlimit: 4; stroke-dasharray: none; stroke-dashoffset: 0pt; stroke-opacity: 1; filter: url(#filter4716);" id="rect4702"/>
      <rect width="69.835739" height="24.664639" ry="2.1681025" x="341.3071" y="816.34045" style="opacity: 1; fill: rgb(255, 255, 255); fill-opacity: 1; stroke: none; stroke-width: 16; stroke-linecap: round; stroke-linejoin: round; stroke-miterlimit: 4; stroke-dasharray: none; stroke-dashoffset: 0pt; stroke-opacity: 1;" id="rect4700"/>
      <path d="M 9,13 L 9,15 L 7,15 L 7,17 L 9,17 L 9,19 L 11,19 L 11,17 L 13,17 L 13,15 L 11,15 L 11,13 L 9,13 z " transform="translate(341.143, 816.005)" style="opacity: 1; fill: rgb(0, 128, 0); fill-opacity: 1; stroke: none; stroke-width: 16; stroke-linecap: round; stroke-linejoin: round; stroke-miterlimit: 4; stroke-dasharray: none; stroke-dashoffset: 0pt; stroke-opacity: 1;" id="rect4643"/>
      <path d="M 358.14285,829.00507 L 358.14285,831.00507 L 356.14285,831.00507 L 356.14285,833.00507 L 358.14285,833.00507 L 358.14285,835.00507 L 360.14285,835.00507 L 360.14285,833.00507 L 362.14285,833.00507 L 362.14285,831.00507 L 360.14285,831.00507 L 360.14285,829.00507 L 358.14285,829.00507 z " style="opacity: 1; fill: rgb(0, 128, 0); fill-opacity: 1; stroke: none; stroke-width: 16; stroke-linecap: round; stroke-linejoin: round; stroke-miterlimit: 4; stroke-dasharray: none; stroke-dashoffset: 0pt; stroke-opacity: 1;" id="path4648"/>
      <path d="M 366.14285,829.00507 L 366.14285,831.00507 L 364.14285,831.00507 L 364.14285,833.00507 L 366.14285,833.00507 L 366.14285,835.00507 L 368.14285,835.00507 L 368.14285,833.00507 L 370.14285,833.00507 L 370.14285,831.00507 L 368.14285,831.00507 L 368.14285,829.00507 L 366.14285,829.00507 z " style="opacity: 1; fill: rgb(0, 128, 0); fill-opacity: 1; stroke: none; stroke-width: 16; stroke-linecap: round; stroke-linejoin: round; stroke-miterlimit: 4; stroke-dasharray: none; stroke-dashoffset: 0pt; stroke-opacity: 1;" id="path4650"/>
      <rect width="6" height="2" x="7" y="8" transform="translate(341.143, 816.005)" style="opacity: 1; fill: rgb(192, 0, 0); fill-opacity: 1; stroke: none; stroke-width: 16; stroke-linecap: round; stroke-linejoin: round; stroke-miterlimit: 4; stroke-dasharray: none; stroke-dashoffset: 0pt; stroke-opacity: 1;" id="rect4652"/>
      <rect width="6" height="2" x="356.14285" y="824.00507" style="opacity: 1; fill: rgb(192, 0, 0); fill-opacity: 1; stroke: none; stroke-width: 16; stroke-linecap: round; stroke-linejoin: round; stroke-miterlimit: 4; stroke-dasharray: none; stroke-dashoffset: 0pt; stroke-opacity: 1;" id="rect4654"/>
      <rect width="6" height="2" x="364.14285" y="824.00507" style="opacity: 1; fill: rgb(192, 0, 0); fill-opacity: 1; stroke: none; stroke-width: 16; stroke-linecap: round; stroke-linejoin: round; stroke-miterlimit: 4; stroke-dasharray: none; stroke-dashoffset: 0pt; stroke-opacity: 1;" id="rect4656"/>
      <g id="g4695">
        <path d="M 47,8 L 47,10 L 50,10 L 50,8 L 47,8 z M 45,11 L 45,12 L 47,12 L 47,16 L 45,16 L 45,17 L 52,17 L 52,16 L 50,16 L 50,12 L 50,11 L 45,11 z " transform="translate(341.143, 816.005)" style="opacity: 1; fill: rgb(0, 128, 0); fill-opacity: 1; stroke: none; stroke-width: 16; stroke-linecap: round; stroke-linejoin: round; stroke-miterlimit: 4; stroke-dasharray: none; stroke-dashoffset: 0pt; stroke-opacity: 1;" id="rect4662"/>
        <path d="M 54,9 L 54,11 L 52,11 L 52,12 L 54,12 L 54,16 L 54,17 L 59,17 L 59,16 L 57,16 L 57,12 L 59,12 L 59,11 L 57,11 L 57,9 L 54,9 z " transform="translate(341.143, 816.005)" style="opacity: 1; fill: rgb(0, 128, 0); fill-opacity: 1; stroke: none; stroke-width: 16; stroke-linecap: round; stroke-linejoin: round; stroke-miterlimit: 4; stroke-dasharray: none; stroke-dashoffset: 0pt; stroke-opacity: 1;" id="rect4670"/>
        <path d="M 38,11 L 38,12 L 37,12 L 37,16 L 38,16 L 38,17 L 41,17 L 41,18 L 38,18 L 38,19 L 43,19 L 43,18 L 44,18 L 44,17 L 44,16 L 44,15.96875 L 44,12 L 44,11 L 38,11 z M 40,12 L 41,12 L 41,15.96875 L 40,15.96875 L 40,12 z " transform="translate(341.143, 816.005)" style="opacity: 1; fill: rgb(0, 128, 0); fill-opacity: 1; stroke: none; stroke-width: 16; stroke-linecap: round; stroke-linejoin: round; stroke-miterlimit: 4; stroke-dasharray: none; stroke-dashoffset: 0pt; stroke-opacity: 1;" id="path4724"/>
      </g>
    </g>
  </g>
</svg>